<!DOCTYPE svg PUBLIC "-//W3C//DTD SVG 1.1//EN" "http://www.w3.org/Graphics/SVG/1.1/DTD/svg11.dtd">
<!-- Uploaded to: SVG Repo, www.svgrepo.com, Transformed by: SVG Repo Mixer Tools -->
<svg width="64px" height="64px" viewBox="0 0 24 24" role="img" xmlns="http://www.w3.org/2000/svg" aria-labelledby="thumbUpIconTitle" stroke="#189754" stroke-width="2" stroke-linecap="round" stroke-linejoin="round" fill="none" color="#000000" transform="rotate(0)">
<g id="SVGRepo_bgCarrier" stroke-width="0"/>
<g id="SVGRepo_tracerCarrier" stroke-linecap="round" stroke-linejoin="round"/>
<g id="SVGRepo_iconCarrier"> <title id="thumbUpIconTitle">Thumb Up</title> <path d="M8,8.73984815 C8,8.26242561 8.17078432,7.80075162 8.4814868,7.43826541 L13.2723931,1.84887469 C13.7000127,1.34998522 14.4122932,1.20614658 15,1.5 C15.5737957,1.78689785 15.849314,2.45205792 15.6464466,3.06066017 L14,8 L18.6035746,8 C18.7235578,8 18.8432976,8.01079693 18.9613454,8.03226018 C20.0480981,8.22985158 20.7689058,9.27101818 20.5713144,10.3577709 L19.2985871,17.3577709 C19.1256814,18.3087523 18.2974196,19 17.3308473,19 L10,19 C8.8954305,19 8,18.1045695 8,17 L8,8.73984815 Z"/> <path d="M4,18 L4,9"/> </g>
</svg>